<?xml version="1.0" encoding="utf-8"?>
<!-- Generator: Adobe Illustrator 23.0.1, SVG Export Plug-In . SVG Version: 6.00 Build 0)  -->
<svg version="1.1" id="Layer_1" xmlns="http://www.w3.org/2000/svg" xmlns:xlink="http://www.w3.org/1999/xlink" x="0px" y="0px"
	 viewBox="0 0 1700 1700" style="enable-background:new 0 0 1700 1700;" xml:space="preserve">
<style type="text/css">
	.st0{fill:#FFFFFF;}
</style>
<g>
	<path class="st0" d="M233.2,404c-5.2-9.1-16.6-28.7-25.2-43.5c-8.7-14.9-22.3-38.4-30.3-52.3L163.2,283h170.5
		c161.9,0,170.5-0.1,170.1-1.8c-0.2-0.9-3.8-15.3-7.8-32l-7.4-30.2H269.7H50.8l2.2,3.7c1.2,2.1,6.7,11.7,12.3,21.3
		c5.5,9.6,19.5,33.9,31.2,54c11.7,20.1,28.1,48.4,36.6,63c8.4,14.6,19.1,33,23.7,41c4.7,8,15.7,27.1,24.7,42.5
		c31.4,54.4,58,100.2,69.5,120c6.4,11,14,24.2,17,29.4c3,5.1,5.9,9.5,6.5,9.7c1.5,0.6,58.8-23.1,59.3-24.5
		c0.2-0.6-11.1-20.8-25.1-44.8C266.5,461.7,243.2,421.4,233.2,404z"/>
	<path class="st0" d="M1008.8,1182.5c-0.7,0-2.6,2.5-4.3,5.5c-3.6,6.1-39.5,68-70.5,121.5c-11.2,19.2-29.4,50.7-40.6,70
		c-35,60.7-46.4,80-47.4,80s-12.4-19.3-47.4-80c-11.2-19.3-29.4-50.8-40.6-70c-31.2-53.8-66.9-115.4-70.4-121.4
		c-1.7-3-3.6-5.6-4.1-5.8c-0.7-0.2-41.1,39.2-47,45.8c-0.3,0.4,3.2,7.1,7.8,15c4.5,7.9,17.7,30.6,29.1,50.4
		c11.5,19.8,26.4,45.4,33.1,57c6.7,11.5,17.3,29.8,23.5,40.5s18.6,32.1,27.5,47.5c9,15.4,25.2,43.3,36,62
		c45.9,79.3,51.9,89.5,52.5,89.5c0.6,0,6.6-10.2,52.5-89.5c10.8-18.7,27-46.6,36-62c8.9-15.4,21.3-36.8,27.5-47.5s16.8-29,23.5-40.5
		c6.7-11.6,21.6-37.2,33.1-57c11.4-19.8,24.6-42.5,29.1-50.4l8.4-14.4l-2.8-2.9C1041.9,1213.8,1009.7,1182.5,1008.8,1182.5z"/>
	<path class="st0" d="M1453.4,354.7c13-22.5,23.6-41.1,23.6-41.3c0-0.2-283.9-0.4-631-0.4s-631,0.2-631,0.4
		c0,0.2,10.6,18.8,23.6,41.3c13,22.4,33.1,57.2,44.7,77.3c21.8,37.8,45,77.9,81.7,141.5c11.7,20.3,28.6,49.6,37.5,65
		c26.8,46.4,35,60.6,54,93.5c10,17.3,36.1,62.5,58,100.5c21.9,37.9,47.1,81.6,56,97c8.9,15.4,26.5,45.8,39,67.5s27.8,48.3,34,59
		s23.1,40,37.5,65c14.5,25,33.6,58.1,42.5,73.5c21.3,36.8,77.5,134.1,93.5,162c22.9,39.9,28.5,49.5,29,49.5s6.1-9.6,29-49.5
		c16-27.9,72.2-125.2,93.5-162c8.9-15.4,28-48.5,42.5-73.5c14.4-25,31.3-54.3,37.5-65s21.5-37.3,34-59s30.1-52.1,39-67.5
		c8.9-15.4,34.1-59.1,56-97c21.9-38,48-83.2,58-100.5c19-32.9,27.2-47.1,54-93.5c8.9-15.4,25.8-44.7,37.5-65
		c36.7-63.6,59.9-103.7,81.7-141.5C1420.3,411.9,1440.4,377.1,1453.4,354.7z M863,399h214.2c117.8,0,213.9,0.2,213.7,0.4
		c-0.5,0.4-48.8,28.3-96.4,55.6c-20.3,11.7-48,27.7-61.5,35.5s-36.7,21.3-51.7,29.8l-27.1,15.7l-33.9-19.7
		c-33.1-19.2-55.6-32.2-123.5-71.4l-33.7-19.4l-0.1-13.3V399z M1036,687.4v99.3l-15.2,8.9c-8.4,4.8-22.3,12.8-30.8,17.7
		c-18.1,10.5-106.7,61.8-118.8,68.8l-8.2,4.8l0.2-99.6l0.3-99.7l28.5-16.5c15.7-9.1,54.4-31.4,86-49.7
		c31.6-18.3,57.6-33.2,57.8-33.3C1035.9,588,1036,632.7,1036,687.4z M614.8,399H829v13.2l-0.1,13.3l-33.7,19.4
		c-67.9,39.2-90.4,52.2-123.5,71.4L637.8,536l-27.1-15.7c-15-8.5-38.2-22-51.7-29.8s-41.1-23.8-61.5-35.5
		c-47.6-27.3-95.9-55.2-96.4-55.6C400.9,399.2,497,399,614.8,399z M608.8,796.1l-11.8,6.8l-3.8-6.7c-2.2-3.7-10.8-18.6-19.2-33.1
		c-21.5-37.3-76.6-132.8-94-163.1c-8.1-14-20.3-35.2-27.2-47C427.5,509.5,383,432.1,383,431.4c0-0.3,1.9,0.5,4.3,1.9
		c2.3,1.3,24,13.8,48.2,27.8c24.2,13.9,56.6,32.5,72,41.4c25,14.4,69.3,40,101.5,58.5l11.5,6.6v110.8v110.8L608.8,796.1z
		 M829,1066.4c0,75.9-0.2,137.7-0.4,137.5c-0.2-0.2-9-15.5-19.6-33.9c-20.2-35.2-51-88.5-84-145.5c-10.9-18.7-36.9-63.9-58-100.5
		c-21.1-36.6-41.3-71.8-45.1-78.2l-6.8-11.7l11.7-7c6.5-3.9,12.6-6.9,13.7-6.7c2.1,0.2,12,5.9,95,54.1c24.8,14.3,55.9,32.4,69.2,40
		l24.3,14V1066.4z M820.8,882.1c-12.1-7-100.7-58.3-118.8-68.8c-8.5-4.9-22.4-12.9-30.7-17.7l-15.3-8.9v-99.4V588l2.3,1.4
		c1.2,0.8,27.6,16,58.7,33.9c31.1,17.9,68.9,39.6,84,48.4l27.5,15.9l0.3,99.7l0.2,99.6L820.8,882.1z M846,654.5
		c-2.2,0-27.6-14.3-107.5-60.5c-12.1-7-31.6-18.3-43.4-25c-17.9-10.3-21-12.5-19.5-13.3c1.1-0.5,21.5-12.3,45.4-26.2
		c23.9-13.8,58.1-33.6,76-44c17.9-10.3,36.1-20.9,40.5-23.6c4.4-2.6,8.1-4.8,8.2-4.8c0-0.1,3.9,2.1,8.5,4.8
		c4.5,2.6,22.9,13.3,40.8,23.6c17.9,10.4,52.1,30.2,76,44c23.9,13.9,44.3,25.7,45.4,26.2c1.5,0.8-1.6,3-19.5,13.3
		c-11.8,6.7-31.3,18-43.4,25C873.6,640.2,848.2,654.5,846,654.5z M1070.1,845.8c-3.8,6.4-24,41.6-45.1,78.2
		c-21.1,36.6-47.1,81.8-58,100.5c-33,57-63.8,110.3-84,145.5c-10.6,18.4-19.4,33.7-19.6,33.9c-0.2,0.2-0.4-61.6-0.4-137.5V928.5
		l23.3-13.4c12.7-7.4,47.3-27.3,76.7-44.4c29.4-17.1,61.1-35.4,70.5-40.9c9.3-5.4,17.5-9.8,18.1-9.8c0.7,0,6.6,3.2,13.2,7.1l12.1,7
		L1070.1,845.8z M1239.2,553c-6.9,11.8-19.1,33-27.2,47c-17.4,30.3-72.5,125.8-94,163.1c-8.4,14.5-17,29.4-19.2,33.1l-3.8,6.7
		l-11.8-6.8l-11.7-6.9V678.4V567.6l11.5-6.6c47.5-27.4,69.8-40.2,99-57c18.4-10.7,54.4-31.4,80-46.1c25.5-14.7,46.6-26.6,46.8-26.4
		C1309.1,431.8,1269.5,501,1239.2,553z"/>
	<path class="st0" d="M1422.3,219h-218.9l-7.4,30.2c-4,16.7-7.6,31.1-7.8,32c-0.4,1.7,8.2,1.8,170.1,1.8h170.5l-14.5,25.2
		c-8,13.9-21.6,37.4-30.3,52.3c-8.6,14.8-20,34.4-25.2,43.5c-10,17.4-33.3,57.7-75.5,130.3c-14,24-25.3,44.2-25.1,44.8
		c0.5,1.4,57.8,25.1,59.3,24.5c0.6-0.2,3.5-4.6,6.5-9.7c3-5.2,10.6-18.4,17-29.4c11.5-19.8,38.1-65.6,69.5-120
		c9-15.4,20-34.5,24.7-42.5c4.6-8,15.3-26.4,23.7-41c8.5-14.6,24.9-42.9,36.6-63c11.7-20.1,25.7-44.4,31.2-54
		c5.6-9.6,11.1-19.2,12.3-21.3l2.2-3.7H1422.3z"/>
</g>
</svg>
